<svg height="512" viewBox="0 0 64 64" width="512" xmlns="http://www.w3.org/2000/svg"><path d="m6 6h2v2h-2z"/><path d="m10 6h2v2h-2z"/><path d="m14 6h2v2h-2z"/><path d="m61 2h-58a1 1 0 0 0 -1 1v58a1 1 0 0 0 1 1h58a1 1 0 0 0 1-1v-58a1 1 0 0 0 -1-1zm-1 8h-40v-6h40zm-56-6h14v6h-14zm0 56v-48h56v48z"/><path d="m53 22h-42a5.006 5.006 0 0 0 -5 5v12a5.006 5.006 0 0 0 5 5h42a5.006 5.006 0 0 0 5-5v-12a5.006 5.006 0 0 0 -5-5zm3 17a3 3 0 0 1 -3 3h-42a3 3 0 0 1 -3-3v-12a3 3 0 0 1 3-3h42a3 3 0 0 1 3 3z"/><path d="m51.414 49 1.293-1.293a1 1 0 0 0 -.707-1.707h-7a1 1 0 0 0 -1 1v7a1 1 0 0 0 1.707.707l1.293-1.293 3.293 3.293a1 1 0 0 0 1.414 0l3-3a1 1 0 0 0 0-1.414zm-.414 5.586-3.293-3.293a1 1 0 0 0 -1.414 0l-.293.293v-3.586h3.586l-.293.293a1 1 0 0 0 0 1.414l3.293 3.293z"/><path d="m31 15h2v4h-2z"/><path d="m34.379 17.5h4.243v2h-4.243z" transform="matrix(.707 -.707 .707 .707 -2.391 31.228)"/><path d="m26.5 16.379h2v4.243h-2z" transform="matrix(.707 -.707 .707 .707 -5.027 24.864)"/><path d="m31 48h2v4h-2z"/><path d="m35.5 46.379h2v4.243h-2z" transform="matrix(.707 -.707 .707 .707 -23.604 40.015)"/><path d="m25.379 47.5h4.243v2h-4.243z" transform="matrix(.707 -.707 .707 .707 -26.24 33.651)"/><path d="m10 29v4a1 1 0 0 0 1 1h3v2h-4v2h5a1 1 0 0 0 1-1v-4a1 1 0 0 0 -1-1h-3v-2h4v-2h-5a1 1 0 0 0 -1 1z"/><path d="m23 36h-3v-8h-2v9a1 1 0 0 0 1 1h5a1 1 0 0 0 1-1v-9h-2z"/><path d="m34 28h-6a1 1 0 0 0 -1 1v8a1 1 0 0 0 1 1h6a1 1 0 0 0 1-1v-8a1 1 0 0 0 -1-1zm-5 2h4v2h-4zm4 6h-4v-2h4z"/><path d="m53 27h-12a1 1 0 0 0 -1 1v3.764l-2.9 5.789a1 1 0 0 0 .9 1.447 1.014 1.014 0 0 0 .316-.051l5.846-1.949h8.838a1 1 0 0 0 1-1v-8a1 1 0 0 0 -1-1zm-1 8h-8a1 1 0 0 0 -.316.051l-3.71 1.237 1.926-3.841a1 1 0 0 0 .1-.447v-3h10z"/><path d="m48 31h2v2h-2z"/><path d="m44 31h2v2h-2z"/></svg>