<?xml version="1.0" encoding="iso-8859-1"?>
<!-- Generator: Adobe Illustrator 16.0.0, SVG Export Plug-In . SVG Version: 6.00 Build 0)  -->
<!DOCTYPE svg PUBLIC "-//W3C//DTD SVG 1.1//EN" "http://www.w3.org/Graphics/SVG/1.1/DTD/svg11.dtd">
<svg version="1.1" id="Capa_1" xmlns="http://www.w3.org/2000/svg" xmlns:xlink="http://www.w3.org/1999/xlink" x="0px" y="0px"
	 width="535.5px" height="535.5px" viewBox="0 0 535.5 535.5" style="enable-background:new 0 0 535.5 535.5;" xml:space="preserve"
	>
<g>
	<path d="M0,54.794v-0.01V54.794z"/>
	<path d="M486.291,535.5L486.291,535.5L486.291,535.5z"/>
	<g>
		<path d="M486.291,0H67.665C36.711,0,9.563,25.608,9.563,54.793v419.422c0,28.523,26.067,51.723,58.102,51.723h418.626
			c29.434,0,49.209-20.789,49.209-51.713V54.794C535.5,23.046,514.799,0,486.291,0z M497.25,433.967
			c0,29.613-24.107,53.721-53.732,53.721h-4.781H101.545c-29.625,0-53.732-24.107-53.732-53.721V96.763v-4.781
			c0-29.625,24.107-53.732,53.732-53.732h341.982c29.615,0,53.723,24.107,53.723,53.722V433.967z"/>
		<path d="M443.52,47.813h-4.781H101.545c-24.356,0-44.169,19.804-44.169,44.16v341.994c0,24.355,19.813,44.158,44.169,44.158
			h341.982c24.346,0,44.16-19.803,44.16-44.158V96.763v-4.781C487.688,67.617,467.875,47.813,443.52,47.813z M272.531,76.293
			c14.219,0,25.828,11.609,25.828,25.828c0,14.219-11.598,34.654-25.828,34.654c-14.218,0-25.828-20.425-25.828-34.654
			C246.703,87.902,258.312,76.293,272.531,76.293z M340.213,272.506l-23.936-81.74c-3.604-10.249-17.301-6.743-14.604,3.001
			c12.994,45.977,25.697,90.778,38.701,136.754h-28.699h-2.727c0,0,0.02,68.453,0,103.5c0,20.496-28.275,20.996-28.275,0.498
			V330.521h-16.281V434.52c0,20.498-28.276,19.998-28.276-0.498c-0.019-35.047,0-103.504,0-103.504l-0.599,0.006h-30.83
			c13.005-45.978,25.708-90.778,38.703-136.755c2.697-9.744-11-13.25-14.605-3.001l-23.935,81.74
			c-5.21,16.011-28.46,9.011-23.82-6.11c9.629-32.474,19.269-64.948,28.898-97.432c2.639-5.192,9.763-22.634,37.694-22.634
			c2.484,0,6.91-0.003,12.299-0.007v-0.022c4.135,0.004,8.434,0.008,12.609,0.012c4.176-0.004,8.475-0.008,12.609-0.012v0.022
			c5.389,0.004,9.812,0.007,12.297,0.007c27.932,0,35.057,17.442,37.695,22.634c9.629,32.484,19.268,64.958,28.898,97.432
			C368.672,281.518,345.422,288.518,340.213,272.506z"/>
	</g>
</g>
<g>
</g>
<g>
</g>
<g>
</g>
<g>
</g>
<g>
</g>
<g>
</g>
<g>
</g>
<g>
</g>
<g>
</g>
<g>
</g>
<g>
</g>
<g>
</g>
<g>
</g>
<g>
</g>
<g>
</g>
</svg>
