<?xml version="1.0" encoding="iso-8859-1"?>
<!-- Generator: Adobe Illustrator 16.0.0, SVG Export Plug-In . SVG Version: 6.00 Build 0)  -->
<!DOCTYPE svg PUBLIC "-//W3C//DTD SVG 1.1//EN" "http://www.w3.org/Graphics/SVG/1.1/DTD/svg11.dtd">
<svg version="1.1" id="Capa_1" xmlns="http://www.w3.org/2000/svg" xmlns:xlink="http://www.w3.org/1999/xlink" x="0px" y="0px"
	 width="535.5px" height="535.5px" viewBox="0 0 535.5 535.5" style="enable-background:new 0 0 535.5 535.5;" xml:space="preserve"
	>
<g>
	<path d="M0,54.794v-0.01V54.794z"/>
	<path d="M481.51,535.5L481.51,535.5L481.51,535.5z"/>
	<g>
		<path d="M534.783,46.12c-3.567-23.591-21.41-41.721-44.639-45.374C487.334,0.373,484.532,0,481.51,0H62.883
			C32.981,0,9.563,24.078,9.563,54.793v419.422c0,29.977,22.424,51.723,53.32,51.723H481.51c30.782,0,53.99-22.232,53.99-51.713
			V54.794v-0.01C535.5,51.762,535.137,48.941,534.783,46.12z M497.25,433.967c0,29.613-24.107,53.721-53.732,53.721h-4.78H101.544
			c-29.625,0-53.732-24.107-53.732-53.721V96.763v-4.781c0-29.625,24.107-53.732,53.732-53.732h341.984
			c29.614,0,53.722,24.107,53.722,53.722V433.967z"/>
		<path d="M443.518,47.813h-4.78H101.544c-24.356,0-44.169,19.804-44.169,44.16v341.994c0,24.355,19.813,44.158,44.169,44.158
			h341.984c24.346,0,44.159-19.803,44.159-44.158V96.763v-4.781C487.688,67.617,467.874,47.813,443.518,47.813z M272.526,75.229
			c14.669,0,26.632,11.991,26.632,26.698c0,14.707-11.963,33.144-26.632,33.144s-26.622-18.446-26.622-33.144
			C245.895,87.22,257.858,75.229,272.526,75.229z M352.162,286.598c0.029,17.48-27.942,17.596-27.942,0
			c-0.01-34.271,0.011-68.333,0-102.605h-12.861c0,0,0,233.445,0,258.742s-31.625,25.703-31.625,0.029
			c-0.038-47.574,0-142.76,0-142.76h-1.072H266.4h-1.072c0,0,0.038,95.186,0,142.76c0,25.674-31.625,25.268-31.625-0.029
			s0-258.742,0-258.742h-12.862c-0.01,34.272,0.01,68.334,0,102.605c0,17.596-27.97,17.48-27.941,0V172.231
			c0,0,0.182-28.783,27.367-28.783h46.133h12.261h46.132c27.187,0,27.368,28.783,27.368,28.783v114.367H352.162z"/>
	</g>
</g>
<g>
</g>
<g>
</g>
<g>
</g>
<g>
</g>
<g>
</g>
<g>
</g>
<g>
</g>
<g>
</g>
<g>
</g>
<g>
</g>
<g>
</g>
<g>
</g>
<g>
</g>
<g>
</g>
<g>
</g>
</svg>
